<?xml version="1.0" encoding="utf-8"?>
<!-- Generator: Adobe Illustrator 20.1.0, SVG Export Plug-In . SVG Version: 6.00 Build 0)  -->
<svg version="1.1" id="Layer_1" xmlns="http://www.w3.org/2000/svg" xmlns:xlink="http://www.w3.org/1999/xlink" x="0px" y="0px"
	 viewBox="0 0 317 317" style="enable-background:new 0 0 317 317;" xml:space="preserve">
<style type="text/css">
	.st0{fill:#F2F2F2;}
	.st1{fill:#CCCCCC;}
	.st2{fill:#4D4D4D;}
	.st3{fill:none;}
	.st4{fill:#9B9B9B;}
</style>
<circle class="st0" cx="158.5" cy="158.5" r="158.5"/>
<g>
	<polygon class="st1" points="197,258 108,258 99,115 206,115 	"/>
</g>
<polygon class="st2" points="102,156 203,156 200.3,211 105,211 "/>
<path id="SVGID_x5F_1_x5F_" class="st3" d="M132.5,104.7c0,0-11.8-12.5-0.5-33.2s-2.7-33.8-2.7-33.8"/>
<text><textPath  xlink:href="#SVGID_x5F_1_x5F_" startOffset="7.91%">
<tspan  style="fill:#B3B3B3; font-family:'MyriadPro-Regular'; font-size:11px;">this is coffee</tspan></textPath>
</text>
<path id="SVGID_x5F_2_x5F_" class="st3" d="M156.8,105c0,0-11.8-12.5-0.5-33.2c11.3-20.7-2.7-33.8-2.7-33.8"/>
<text><textPath  xlink:href="#SVGID_x5F_2_x5F_" startOffset="7.91%">
<tspan  style="fill:#B3B3B3; font-family:'MyriadPro-Regular'; font-size:11px;">this is coffee</tspan></textPath>
</text>
<path id="SVGID_x5F_3_x5F_" class="st3" d="M179.7,105c0,0-11.8-12.5-0.5-33.2c11.3-20.7-2.7-33.8-2.7-33.8"/>
<text><textPath  xlink:href="#SVGID_x5F_3_x5F_" startOffset="7.91%">
<tspan  style="fill:#B3B3B3; font-family:'MyriadPro-Regular'; font-size:11px;">this is coffee</tspan></textPath>
</text>
<path class="st4" d="M177.7,315.8c58.3-7.1,106.9-45.8,128-98.5L206,115l-9.3,141.7L108,258L177.7,315.8z"/>
</svg>
