<svg xmlns="http://www.w3.org/2000/svg" viewBox="0 0 606.19 419.22"><defs><style>.cls-1{fill:#b3b3b3;}.cls-2{fill:#f2f2f2;}.cls-3{fill:#5aabed;}.cls-4{fill:#f0f;}.cls-5{fill:#0071bc;}</style></defs><title>oxy_choose_template</title><g id="Layer_3_copy" data-name="Layer 3 copy"><g id="Layer_1_copy_5" data-name="Layer 1 copy 5"><rect class="cls-1" x="62.34" y="30.33" width="231.33" height="360.67" rx="12" ry="12" transform="translate(-73.33 97.1) rotate(-25.49)"/></g><g id="Layer_1_copy" data-name="Layer 1 copy"><rect class="cls-2" x="63.34" y="29.33" width="231.33" height="360.67" rx="12" ry="12" transform="translate(-72.8 97.44) rotate(-25.49)"/></g><rect class="cls-3" x="35.58" y="77.92" width="96" height="89.33" transform="translate(-44.62 47.9) rotate(-25.49)"/><rect class="cls-1" x="115.04" y="37.49" width="90" height="15.33" transform="translate(-3.86 73.26) rotate(-25.49)"/><rect class="cls-1" x="125.42" y="62.33" width="59.5" height="15.33" transform="translate(-15.02 73.58) rotate(-25.49)"/><rect class="cls-1" x="133.79" y="78.52" width="71.67" height="15.33" transform="translate(-20.58 81.38) rotate(-25.49)"/><rect class="cls-3" x="77.34" y="184.89" width="60.5" height="56.3" transform="translate(-81.2 67.03) rotate(-25.49)"/><rect class="cls-4" x="140.53" y="154.77" width="60.5" height="56.3" transform="translate(-62.09 91.29) rotate(-25.49)"/><rect class="cls-5" x="203.93" y="125.1" width="60.5" height="56.3" transform="translate(-43.15 115.69) rotate(-25.49)"/><rect class="cls-1" x="95.46" y="225.78" width="199" height="15.33" transform="translate(-81.48 106.62) rotate(-25.49)"/><rect class="cls-1" x="109.22" y="263.13" width="124" height="15.33" transform="translate(-99.87 100.04) rotate(-25.49)"/><rect class="cls-1" x="118.81" y="277.8" width="161.83" height="15.33" transform="translate(-103.4 113.73) rotate(-25.49)"/></g><g id="Layer_3_copy_2" data-name="Layer 3 copy 2"><g id="Layer_1_copy_4" data-name="Layer 1 copy 4"><rect class="cls-1" x="173.67" y="1" width="231.33" height="360.67" rx="12" ry="12"/></g><g id="Layer_1_copy_2" data-name="Layer 1 copy 2"><rect class="cls-2" x="174.67" width="231.33" height="360.67" rx="12" ry="12"/></g><rect class="cls-3" x="193.67" y="16" width="96" height="89.33"/><rect class="cls-1" x="299.01" y="16" width="90" height="15.33"/><rect class="cls-1" x="299.17" y="36.33" width="59.5" height="15.33"/><rect class="cls-1" x="299.17" y="57.17" width="71.67" height="15.33"/><rect class="cls-3" x="194.17" y="124.5" width="60.5" height="56.3"/><rect class="cls-4" x="264.17" y="124.5" width="60.5" height="56.3"/><rect class="cls-5" x="334.17" y="125" width="60.5" height="56.3"/><rect class="cls-1" x="195.01" y="201" width="199" height="15.33"/><rect class="cls-1" x="195.01" y="224.5" width="124" height="15.33"/><rect class="cls-1" x="195.51" y="250" width="161.83" height="15.33"/></g><g id="Layer_3" data-name="Layer 3"><g id="Layer_1_copy_3" data-name="Layer 1 copy 3"><rect class="cls-1" x="257.01" y="94.33" width="360.67" height="231.33" rx="12" ry="12" transform="matrix(0.35, -0.94, 0.94, 0.35, 88.03, 546.67)"/></g><g id="Layer_1" data-name="Layer 1"><rect class="cls-2" x="258.01" y="93.33" width="360.67" height="231.33" rx="12" ry="12" transform="matrix(0.35, -0.94, 0.94, 0.35, 89.62, 546.96)"/></g><rect class="cls-3" x="386.45" y="35.21" width="96" height="89.33" transform="translate(55.12 -146.47) rotate(20.41)"/><rect class="cls-1" x="498.27" y="73.21" width="90" height="15.33" transform="translate(62.29 -184.35) rotate(20.41)"/><rect class="cls-1" x="492.29" y="87.01" width="59.5" height="15.33" transform="translate(65.77 -176.08) rotate(20.41)"/><rect class="cls-1" x="484.64" y="108.66" width="71.67" height="15.33" transform="translate(73.22 -174.18) rotate(20.41)"/><rect class="cls-3" x="355.96" y="131.92" width="60.5" height="56.3" transform="translate(80.05 -124.62) rotate(20.41)"/><rect class="cls-4" x="421.57" y="156.33" width="60.5" height="56.3" transform="translate(92.68 -145.96) rotate(20.41)"/><rect class="cls-5" x="487" y="181.2" width="60.5" height="56.3" transform="translate(105.46 -167.22) rotate(20.41)"/><rect class="cls-1" x="332.87" y="229.34" width="199" height="15.33" transform="translate(109.77 -135.88) rotate(20.41)"/><rect class="cls-1" x="327.03" y="238.29" width="124" height="15.33" transform="matrix(0.94, 0.35, -0.35, 0.94, 110.17, -120.21)"/><rect class="cls-1" x="317.42" y="268.96" width="161.83" height="15.33" transform="translate(121.45 -121.53) rotate(20.41)"/></g></svg>